<svg width="120" height="32" viewBox="0 0 120 32" fill="none" xmlns="http://www.w3.org/2000/svg">
  <rect width="32" height="32" rx="8" fill="#1F2937"/>
  <path d="M10 22V10h7.2c2.8 0 4.4 1.6 4.4 3.7 0 1.5-.9 2.7-2.4 3.2v.1c1.9.4 3.1 1.8 3.1 3.6 0 2.3-1.9 4-4.8 4H10Zm4-7.5h2.5c1 .1 1.6-.6 1.6-1.5s-.6-1.5-1.6-1.5H14v3Zm0 5.4h3c1.1 0 1.8-.6 1.8-1.6 0-.9-.7-1.5-1.8-1.5H14v3.1Z" fill="#FACC15"/>
  <text x="42" y="22" font-family="'Inter', 'Segoe UI', sans-serif" font-size="18" font-weight="700" fill="#F8FAFC">BigB</text>
</svg>
